<svg width="7" height="12" viewBox="0 0 7 12" fill="none" xmlns="http://www.w3.org/2000/svg">
<path d="M0.855449 0.544194L0.310263 1.12388C0.237459 1.20113 0.201172 1.29011 0.201172 1.3907C0.201172 1.49105 0.237459 1.57999 0.310263 1.65724L4.59609 6.21423L0.310377 10.771C0.237574 10.8483 0.201286 10.9372 0.201286 11.0377C0.201286 11.1382 0.237574 11.2272 0.310377 11.3044L0.855602 11.884C0.928253 11.9614 1.0119 12 1.10644 12C1.2009 12 1.28456 11.9613 1.35721 11.884L6.43917 6.48092C6.51186 6.40368 6.54819 6.3147 6.54819 6.21423C6.54819 6.11375 6.51186 6.02493 6.43917 5.94773L1.35721 0.544194C1.28452 0.46695 1.20087 0.428573 1.10644 0.428573C1.0119 0.428573 0.928253 0.46695 0.855449 0.544194Z" fill="#333333"/>
</svg>
