<svg width="35" height="32" viewBox="0 0 35 32" fill="none" xmlns="http://www.w3.org/2000/svg">
<path d="M5.54876 25.183H12.5061L15.8779 30.5183C16.2194 31.0733 16.8169 31.4148 17.4571 31.4148C18.0973 31.4148 18.6947 31.0733 19.0363 30.5183L22.4081 25.183H29.4512C32.5243 25.183 35 22.7074 35 19.6341V5.54883C35 2.47567 32.5244 0 29.4512 0L5.54883 0.000297731C2.47568 0.000297731 0 2.4759 0 5.54913V19.6344C0 22.7073 2.51851 25.183 5.54883 25.183L5.54876 25.183ZM6.91476 5.84769H27.9573V8.40881L6.91476 8.40851V5.84769ZM6.91476 11.183H27.9573V13.7441L6.91476 13.7438V11.183ZM6.91476 16.5184H18.7806V19.0795L6.91476 19.0792V16.5184Z" fill="white"/>
</svg>
